PathFileType	4	(X/Y/Z)	Kaydara	
DataRate	CameraRate	NumFrames	NumMarkers	Units	OrigDataRate	OrigDataStartFrame	OrigNumFrames	
240.00	240.00	4	72	mm	240.00	311	355	
Frame#	Time	Hips			RightUpLeg			RightLeg			RightFoot			RightFoot_End			LeftUpLeg			LeftLeg			LeftFoot			LeftFoot_End			Spine			Spine1			Spine2			Spine3			Neck			Head			Head_End			RightShoulder			RightArm			RightForeArm			RightHand			RightHandThumb1			RightHandThumb2			RightHandThumb3			RightHandThumb3_End			RightInHandIndex			RightHandIndex1			RightHandIndex2			RightHandIndex3			RightHandIndex3_End			RightInHandMiddle			RightHandMiddle1			RightHandMiddle2			RightHandMiddle3			RightHandMiddle3_End			RightInHandRing			RightHandRing1			RightHandRing2			RightHandRing3			RightHandRing3_End			RightInHandPinky			RightHandPinky1			RightHandPinky2			RightHandPinky3			RightHandPinky3_End			LeftShoulder			LeftArm			LeftForeArm			LeftHand			LeftHandThumb1			LeftHandThumb2			LeftHandThumb3			LeftHandThumb3_End			LeftInHandIndex			LeftHandIndex1			LeftHandIndex2			LeftHandIndex3			LeftHandIndex3_End			LeftInHandMiddle			LeftHandMiddle1			LeftHandMiddle2			LeftHandMiddle3			LeftHandMiddle3_End			LeftInHandRing			LeftHandRing1			LeftHandRing2			LeftHandRing3			LeftHandRing3_End			LeftInHandPinky			LeftHandPinky1			LeftHandPinky2			LeftHandPinky3			LeftHandPinky3_End			
		X1	Y1	Z1	X2	Y2	Z2	X3	Y3	Z3	X4	Y4	Z4	X5	Y5	Z5	X6	Y6	Z6	X7	Y7	Z7	X8	Y8	Z8	X9	Y9	Z9	X10	Y10	Z10	X11	Y11	Z11	X12	Y12	Z12	X13	Y13	Z13	X14	Y14	Z14	X15	Y15	Z15	X16	Y16	Z16	X17	Y17	Z17	X18	Y18	Z18	X19	Y19	Z19	X20	Y20	Z20	X21	Y21	Z21	X22	Y22	Z22	X23	Y23	Z23	X24	Y24	Z24	X25	Y25	Z25	X26	Y26	Z26	X27	Y27	Z27	X28	Y28	Z28	X29	Y29	Z29	X30	Y30	Z30	X31	Y31	Z31	X32	Y32	Z32	X33	Y33	Z33	X34	Y34	Z34	X35	Y35	Z35	X36	Y36	Z36	X37	Y37	Z37	X38	Y38	Z38	X39	Y39	Z39	X40	Y40	Z40	X41	Y41	Z41	X42	Y42	Z42	X43	Y43	Z43	X44	Y44	Z44	X45	Y45	Z45	X46	Y46	Z46	X47	Y47	Z47	X48	Y48	Z48	X49	Y49	Z49	X50	Y50	Z50	X51	Y51	Z51	X52	Y52	Z52	X53	Y53	Z53	X54	Y54	Z54	X55	Y55	Z55	X56	Y56	Z56	X57	Y57	Z57	X58	Y58	Z58	X59	Y59	Z59	X60	Y60	Z60	X61	Y61	Z61	X62	Y62	Z62	X63	Y63	Z63	X64	Y64	Z64	X65	Y65	Z65	X66	Y66	Z66	X67	Y67	Z67	X68	Y68	Z68	X69	Y69	Z69	X70	Y70	Z70	X71	Y71	Z71	X72	Y72	Z72	

311	1.292	4921.0129	906.651	56.2195	4917.099239787251	858.3097747924193	-21.204790996790877	4851.538145245637	447.68326933316024	-67.37363354594379	4962.142740256957	95.85010256523148	-195.05415867537715	4890.261336453625	14.551746415050108	-37.71462955932852	4930.941914934622	926.0479612980187	145.8760036251748	4880.599359700493	526.4241809808966	260.0737083400825	4782.685535624249	96.80172299604895	290.3403119250211	4666.816970772321	3.989303268548072	170.0683798677366	4893.771559169086	1036.9790564934337	3.9876815212963868	4843.384098095962	1110.635387625365	-34.35124140400112	4784.569046910443	1182.693876537639	-73.49925032220325	4719.028961819144	1243.7132141510924	-109.47193454296968	4648.300794712591	1308.4301373596265	-147.24675950810857	4583.510791211068	1367.8048392666856	-180.29749344155962	4457.653710724182	1460.0884280312587	-210.08007636448215	4666.8940160286	1269.1389642781828	-154.3363534182445	4632.975429894712	1203.9162742861931	-198.32827957379837	4645.279163549944	1083.5627699319623	-50.993102216062155	4602.657971950464	1061.1956697924206	34.93736374979889	4612.4886979307275	1081.045430501374	22.512561207101953	4612.690012760955	1080.5644537388166	28.23153999948515	4611.55798512169	1077.6380544249878	35.19336577638475	4609.5259088818775	1072.9815230016993	43.54570464421043	4609.539868587425	1075.0929953269563	31.035063595682743	4612.264321301389	1080.153918881694	40.52570183271948	4610.368889560779	1075.577901041279	52.56216386363884	4607.9343344984445	1070.006287126704	59.86360988421941	4605.071930351423	1063.5554106992201	65.78450922783074	4605.804591064649	1067.483621815888	39.06566890410369	4606.442611271345	1068.306287492791	52.664762293654086	4603.86788321535	1062.2823719386179	66.8345592016807	4600.687653824363	1055.065874705609	76.14044773087956	4597.437520205532	1047.7670261013968	82.8605738051335	4603.126819284514	1062.0447415982835	44.46331362787103	4601.46399648992	1058.254630467642	61.237496344739355	4598.700882846637	1051.948786133021	74.62539610097811	4595.357694556611	1044.4274287152969	84.15260977675652	4592.171142102192	1037.2990732482838	90.7323015629637	4599.719582798426	1055.1072891711947	50.67564420425245	4596.197876246022	1047.5781882582005	69.78037520534161	4593.182644875389	1040.8982288899724	82.04655079492751	4590.355847098282	1034.6234060103588	89.74342134997048	4587.309633309504	1027.8549292900757	96.0022565268201	4677.549087031586	1305.8496194302163	-114.52422114189795	4716.625724431768	1349.6795648454008	-30.31896772903442	4755.406750646685	1130.44927336054	-14.636462453945802	4666.443356868452	992.8689102410945	59.727830875586875	4660.212533256508	1012.3206617318555	58.63871752636622	4663.778022942436	1010.3810988719274	61.264668358526535	4668.702863336477	1005.5496498556282	63.44301073780683	4674.897413336067	998.5442043956957	65.55810170056864	4668.153163655104	1002.9258787848125	59.51697067658763	4680.867189181237	999.7632305566317	61.683339324689655	4691.0022734884915	990.6287338802691	64.66068781434329	4695.034238721226	984.2247357508982	66.86555607781769	4696.840978403294	978.4350548110498	68.92920813539814	4674.41322174214	993.2393542563244	60.46236940675246	4690.199801176224	984.9171306346906	63.086326715879004	4702.045562219731	973.6730628025228	66.45475883373389	4707.287329732327	965.3343100184852	69.17222246541617	4709.447671413457	958.7015575788564	71.45812107602842	4678.516933019979	986.5235496877982	61.06280436058217	4696.2430329186345	973.372941046531	63.89989731617755	4707.346653092653	962.2804342505767	66.95403061168089	4712.816342941538	953.5508459440617	69.63800796893133	4715.043594748128	946.9892121190211	71.81707348956283	4682.835641663128	978.5044328801265	61.78824167595525	4701.778680949647	961.6557751387973	64.79737485986526	4711.807735880727	950.8144316547816	67.41512387605225	4716.347690315108	943.4994577862485	69.45608479724163	4718.637399244013	937.1415775270657	71.43429923025869
312	1.296	4921.0129	906.651	56.2195	4916.813359500209	858.1876609321988	-21.29247352125466	4851.349805602344	447.521142778544	-67.27836206360217	4962.411283657757	95.8308591864732	-195.19622132495715	4890.5384060091	14.527556336666427	-37.85518684032168	4931.220376352969	926.1703616791578	145.96874375478922	4880.977389842163	526.5727371131442	260.3007691513126	4782.781634223125	96.97100865526383	290.39495520394087	4667.000524155831	4.075858233460247	170.09447242031564	4893.812030420341	1036.9818787490467	3.969331037397588	4843.392457315937	1110.6578379557056	-34.29646614126671	4784.540687501654	1182.7483294729757	-73.34192659366583	4718.9620720027415	1243.8236239756009	-109.17207496884316	4648.191511034836	1308.5980890519124	-146.79285652712576	4583.36571815207	1368.0266499343566	-179.69973171045618	4457.4444783711215	1460.303241797685	-209.26700839390492	4666.637087355523	1269.1867977034922	-153.91399223313135	4631.856827525867	1203.3019782841002	-197.36548186701674	4644.2948902911585	1083.235319866073	-49.52115009042123	4601.849445054333	1061.9136358399182	37.07672230383434	4611.706466547568	1081.851204284286	25.00410912333848	4612.236255677137	1081.4458952263026	31.038590508837636	4611.340091299875	1078.5870119208796	38.177291953750355	4609.510729752027	1073.9994443461624	46.64043551551203	4608.7576090551265	1075.968126089993	33.40016042033114	4611.669617101154	1081.2888191213046	43.09938339926095	4610.053957337774	1076.8499223651868	55.30873426666885	4607.854912540822	1071.307365460287	62.751600690684825	4605.228975375974	1064.8426367534298	68.81244412443125	4605.042245654132	1068.3879460845328	41.30830448467904	4605.873931048045	1069.4797867260309	55.04459809015102	4603.606695301376	1063.6084523724426	69.38625092210151	4600.711659368594	1056.4284290387322	78.8546958420186	4597.720778136075	1049.1151126519926	85.72402702775538	4602.372325651838	1062.9636541614016	46.61358749198955	4600.885692389633	1059.429172373262	63.42903051190768	4598.392555461779	1053.2589081218118	76.94933824406561	4595.325502606433	1045.774107708626	86.62411979772658	4592.3832074002985	1038.6328003328556	93.33972745814113	4598.979983320523	1056.030827474165	52.71752079766546	4595.624315432721	1048.7411100087022	71.79159105721155	4592.827579578751	1042.1726388555517	84.13649983420461	4590.20331247331	1035.925893485809	91.92780371596211	4587.374113369065	1029.1467566818098	98.29943979530483	4677.624110450218	1306.102010408013	-114.14707827281788	4717.235963460702	1350.5815218080882	-30.01662471169046	4755.389322153416	1131.1948289175984	-13.115181280905356	4666.286186437375	993.7684783141716	61.91973833534251	4660.0954268400155	1013.2014041806165	61.17359237253676	4663.446553088376	1011.3299443449337	64.10863706133783	4668.2041302575835	1006.5547567373739	66.4656411474827	4674.243858451953	999.6037714729065	68.69837200654531	4667.995634543524	1003.8304801799354	61.94873882587117	4680.554252714482	1000.7346353860489	64.36071189844724	4690.472456706547	991.6791152794614	67.52716104187772	4694.336609939043	985.3296697106779	69.87032284270961	4695.982207425723	979.5888200885813	72.06242354587675	4674.207030019416	994.1672023360801	62.7869314385707	4689.81573913225	985.922701606827	65.59245086302917	4701.418788093388	974.7677042398913	69.15230976385256	4706.4551919515925	966.4961546032046	72.02946025513893	4708.4378027082375	959.9175067699024	74.45242451909121	4678.28128235971	987.4658579649662	63.30498275998625	4695.825198508818	974.3966998981264	66.23217995446583	4706.7113532143485	963.3846626721685	69.43763014711865	4711.979811263196	954.7214030174232	72.2673902410942	4714.038462377239	948.2113548059998	74.57142347246779	4682.563012727444	979.4635111061052	63.9313072498162	4701.319313305424	962.6990509002777	66.96080159787368	4711.165786534143	951.9262147901565	69.67509895464141	4715.554877726281	944.6615902742916	71.81048452705554	4717.692883104992	938.3505396940612	73.89254571162398
313	1.3	4921.0129	906.651	56.2195	4916.527118166386	858.0649012260355	-21.38233014306823	4851.167361022711	447.3574728678472	-67.18807796452685	4962.679806426612	95.80481407587804	-195.33525745504298	4890.818984395043	14.49808320685622	-37.990275679569535	4931.498993384297	926.2933773551779	146.06363934167348	4881.354841718036	526.7215439551175	260.5277361530183	4782.870697937119	97.14128374422681	290.44534336629806	4667.176579484964	4.165401938229564	170.1152815485834	4893.853414682824	1036.9848550429135	3.951127429854168	4843.401901654597	1110.679557886503	-34.24379695498578	4784.513085502832	1182.800447709888	-73.1898123590123	4718.8947802191915	1243.9286775628543	-108.88166680771188	4648.080844448143	1308.7575132752188	-146.35324032305107	4583.218839182775	1368.2375571800783	-179.12081839271983	4457.239629548742	1460.5102378516942	-208.48746227159168	4666.3810330757215	1269.2275000086213	-153.50501498636396	4630.800924297198	1202.7518114069235	-196.4394171446811	4643.344483276097	1082.9049149479445	-48.09986027421898	4600.987981076753	1062.5868378233288	39.06443044201921	4610.904219167658	1082.6445387600636	27.33323469660556	4611.773675515385	1082.321217517988	33.6323332758211	4611.114738921522	1079.5284898214481	40.911388033324066	4609.4837287913515	1075.0038229843651	49.45396030334555	4607.935822684217	1076.8143159372983	35.601479721539505	4611.0297816463135	1082.3924493234008	45.471456777355485	4609.68722007979	1078.0827130996859	57.808539221438906	4607.723686844005	1072.5656584043982	65.35823553911709	4605.33701726742	1066.085075625447	71.52599708526105	4604.22294758462	1069.24743818001	43.38463108689993	4605.2334069008775	1070.5975882621694	57.21986208779644	4603.264096437045	1064.8680514075102	71.68386045953724	4600.653159217045	1057.7192068748507	81.27301687933408	4597.924061820987	1050.3887431427859	88.25536199618769	4601.548695996686	1063.82659306131	48.59690583348305	4600.21428685717	1060.5284081359562	65.41927345420325	4597.980476545679	1054.4821981372281	79.02865404906728	4595.1872756327	1047.027717794265	88.81054428282279	4592.491036218776	1039.8704038645335	95.6279932350545	4598.1574862785	1056.885411673046	54.591401647895914	4594.9373400812365	1049.8094309315109	73.60325768912939	4592.347070059241	1043.3399847615724	85.9920635175906	4589.921974248563	1037.1152033863234	93.84822426087618	4587.310408220267	1030.3218003299824	100.302439146555	4677.696072707266	1306.3465930934442	-113.7818301884409	4717.842664547391	1351.4802182388519	-29.72865831656468	4755.475334832767	1131.9608893005764	-11.619130823708828	4666.0396374539305	994.6597116777568	63.945070417879556	4659.913356404423	1014.1090464258913	63.55440839091337	4663.066540140141	1012.3171760069074	66.84759933282763	4667.665047248518	1007.6013432178961	69.42502359320056	4673.554010177945	1000.7032002387725	71.81670676997287	4667.763859378046	1004.7489445389697	64.25404712895491	4680.177733839655	1001.7299312273303	67.00452716371021	4689.885939366477	992.7533358327156	70.42893419786395	4693.588076900054	986.4577695614348	72.94210838946351	4695.078353605296	980.7647615959362	75.28143110626613	4673.917376767706	995.0948873971756	65.0026663348233	4689.353632078356	986.9303059706332	68.08989853439006	4700.720227194818	975.8624304327739	71.91835167117709	4705.557659997639	967.6563637373747	74.99443098626826	4707.368617647092	961.1302962739045	77.5754760135103	4677.95537369487	988.3978792725243	65.44844621332321	4695.316020806706	975.4034727419223	68.56435525804761	4705.98887750171	964.4682689273195	71.99029903965533	4711.061586300082	955.8686495754431	75.0047120196454	4712.957027442356	949.408266181249	77.4539549543647	4682.192090735767	980.4000179791085	65.98442080993883	4700.755661372714	963.7061795787149	69.1302363181657	4710.420886599638	952.9959449416249	71.99903711861771	4714.662144415069	945.7782605090138	74.25843820142055	4716.652663807452	939.5115045354964	76.46299018265879
314	1.304	4921.0129	906.651	56.2195	4916.239385923083	857.9413265951907	-21.473906807037054	4850.987587834814	447.192548124713	-67.10330472744035	4962.945372584822	95.7723691299885	-195.47181791631414	4891.0999463115795	14.463569667369455	-38.12061668815503	4931.778846374145	926.4171890980418	146.16029013610503	4881.731311692606	526.8707785987333	260.75370527791085	4782.9537894063	97.31241813085393	290.4904812235234	4667.345878913501	4.257830445001214	170.13008143052326	4893.895966840059	1036.9879420333714	3.9328238156495696	4843.412847403993	1110.7004634828104	-34.193765814916475	4784.48679572865	1182.8500739716972	-73.04378813321988	4718.827709109992	1244.0280796775955	-108.60199327728925	4647.969493816798	1308.9079891096196	-145.92960587118492	4583.070923602022	1368.437038475496	-178.56281755673143	4457.040534969221	1460.709674774641	-207.74362727911537	4666.126675854103	1269.2606700146573	-153.11090883242773	4629.806234094358	1202.261437138163	-195.55124719854916	4642.432306885712	1082.5814434205622	-46.721995639219074	4600.0803981354375	1063.2268177588678	40.92559892915468	4610.086401670184	1083.4341726177247	29.52429403876325	4611.304000998155	1083.1974806057317	36.03930234016822	4610.882108614301	1080.4686608896527	43.424174049000015	4609.444090437743	1076.0003331266641	52.0168561453928	4607.080086949883	1077.6409913310772	37.66484480143391	4610.34927194319	1083.472330819405	47.671206639035184	4609.271737443985	1079.2828174876026	60.094051240273714	4607.542315946421	1073.787212412816	67.71774558117632	4605.396195744254	1067.2884357178666	73.96070430606635	4603.353219957791	1070.0723739648704	45.32166496615009	4604.526980722612	1071.6685690864394	59.22159170135034	4602.844631372373	1066.069098524037	73.76205094482997	4600.515068961971	1058.9455940879604	83.43226632543383	4598.048654760994	1051.594961250458	90.49289647080172	4600.663158395056	1064.6444807972737	50.441035246544644	4599.457123341483	1061.562561836121	67.2402347203096	4597.4709030679605	1055.6281779493838	80.89865736837378	4594.947768872219	1048.1973219968097	90.74938830751479	4592.497882252725	1041.0206562065212	97.63601515413754	4597.26009936234	1057.6827811113099	56.32585060102848	4594.145571813047	1050.7947457743176	75.24830923905795	4591.74907217249	1044.4114947715514	87.6490283031666	4589.518791712494	1038.2023239842372	95.5421675633354	4587.124203894955	1031.3908455354622	102.05004668404395	4677.76549170405	1306.5830101248177	-113.43010563302248	4718.447056169652	1352.3733344626728	-29.456654740693892	4755.6652873937555	1132.7434708259984	-10.154704887861708	4665.711148497445	995.5417538579472	65.81288462853952	4659.672738522737	1015.0409657869045	65.78726086910515	4662.645907217954	1013.3394967234966	69.48291173583887	4667.095048531253	1008.6859525714035	72.31885521460127	4672.8389576500995	1001.8391662087957	74.90744498916722	4667.465704910902	1005.6795659688358	66.43742972940886	4679.748352001144	1002.7474063044317	69.61107796565095	4689.256024155134	993.8498548902362	73.35657083480422	4692.803278914427	987.6074450702539	76.06884982206812	4694.1449808718535	981.9611428532454	78.57262499635286	4673.553314267196	996.0215555102825	67.11341791454548	4688.8259558052105	987.9395448369105	70.57410183646121	4699.965322064404	976.9571418774333	74.74200051880136	4704.611859982818	968.8148321574331	78.05305103070118	4706.258288551627	962.3396870890696	80.81148868398945	4677.549021602789	989.3193619912961	67.49675708484655	4694.729036989306	976.3939393342891	70.89219084213772	4705.195494784434	965.5323081437904	74.60224726386797	4710.079638263456	956.9936959529309	77.8370691572597	4711.818280547904	950.5809596237062	80.45014910277247	4681.733505777507	981.3143943007617	67.95109097304379	4700.102264937468	964.6788839301405	71.30198896408221	4709.5899745569695	954.0258199000583	74.37875012198224	4713.6877720527245	946.8517909376932	76.78946298098437	4715.535985749425	940.6267571750229	79.13370614285708
